<svg width="512" height="512" viewBox="0 0 512 512" fill="none" xmlns="http://www.w3.org/2000/svg">
<rect width="512" height="512" fill="#7A64FF"/>
<path d="M432.864 364.145C430.911 359.464 428.952 354.387 426.999 350.086C423.868 343.059 420.737 336.417 418.008 330.17L417.617 329.78C409.447 312.05 401.102 294.249 392.587 276.424V224.373C396.148 224.373 399.76 223.072 402.334 220.526C404.884 217.956 406.186 214.345 406.186 210.794V170.051H365.388V183.63H358.586V170.051H317.783V183.63H310.986V149.68C314.542 149.68 318.159 148.379 320.733 145.834C322.441 144.113 323.588 141.927 324.159 139.602C324.445 138.456 324.585 137.276 324.585 136.101V95.3582H298.208L256.583 36L214.958 95.3582H188.581V136.101C188.581 137.191 188.701 138.286 188.947 139.352C189.498 141.767 190.665 144.048 192.433 145.834C195.008 148.379 198.619 149.68 202.181 149.68V183.63H195.378V170.051H154.58V183.63H147.778V170.051H106.98V210.794C106.98 214.345 108.277 217.956 110.857 220.526C113.406 223.072 117.018 224.373 120.579 224.373V276.244C112.124 293.869 103.839 311.469 95.7648 329L95.3691 329.775C92.6342 336.032 89.4986 342.669 86.373 349.691C84.4195 353.987 82.466 358.674 80.5125 363.75C75.4233 378.195 73.8555 391.864 75.819 405.928C80.1218 435.217 99.6718 459.81 126.66 470.753C136.828 475.049 147.387 477 158.337 477C161.468 477 165.375 476.615 168.505 476.22C181.413 474.659 194.712 470.368 207.62 462.946C223.654 453.963 238.906 441.079 256.112 422.338C273.318 441.079 288.961 453.963 304.604 462.946C317.517 470.368 330.806 474.659 343.714 476.22C346.84 476.615 350.757 477 353.888 477C364.837 477 375.787 475.049 385.559 470.753C412.938 459.81 432.098 434.827 436.406 405.928C439.511 392.264 437.948 378.6 432.864 364.145ZM332.154 196.949V187.551H344.21V196.949H374.344V187.551H386.396V206.342H289.963V187.551H302.02V196.949H332.154ZM235.395 95.8033L240.109 89.0763L257.034 64.9339L274.095 89.2713L278.673 95.8033V104.136H273.263V93.3326H240.805V104.136H235.395V95.8033ZM206.859 112.668H219.401V121.931H250.763V112.668H263.305V121.931H294.666V112.668H307.214V131.189H206.859V112.668ZM124.146 187.551H136.638V196.949H167.879V187.551H180.371V196.949H211.612V187.551H224.105V206.342H124.146V187.551ZM256.493 384.452C237.86 361.03 225.012 338.818 219.026 319.437C218.224 316.846 217.543 314.31 216.992 311.824C216.546 309.774 216.181 307.783 215.9 305.853C214.938 299.316 214.913 293.424 215.82 288.002C216.596 281.75 218.951 276.284 222.076 271.597C229.51 261.059 242.022 254.417 256.493 254.417C270.964 254.417 283.872 260.664 290.915 271.597C294.045 276.284 296.389 281.755 297.176 288.002C298.067 293.384 298.047 299.451 297.116 305.853C296.83 307.813 296.455 309.809 295.999 311.824C295.438 314.3 294.747 316.841 293.925 319.437C287.909 338.528 275.076 360.739 256.493 384.452ZM412.528 402.807C409.793 423.114 396.098 440.689 376.939 448.501C367.557 452.402 357.384 453.578 347.221 452.402C337.448 451.227 327.661 448.101 317.502 442.249C303.422 434.432 289.342 422.338 272.917 404.368C298.268 373.298 313.811 344.86 319.917 319.437C320.027 318.982 320.132 318.526 320.237 318.071C321.189 313.865 321.855 309.794 322.271 305.853C323.057 298.455 322.957 291.498 322.191 284.871C320.633 275.113 317.107 266.125 311.632 258.318C299.5 240.738 279.164 230.595 256.488 230.595C233.812 230.595 213.471 241.138 201.349 258.318C195.874 266.125 192.353 275.113 190.79 284.871C189.778 291.448 189.583 298.51 190.419 305.853C190.875 309.854 191.642 313.935 192.744 318.071C192.849 318.526 192.954 318.982 193.064 319.437C199.17 344.87 215.084 373.683 240.058 404.758C224.025 422.723 209.554 434.832 195.474 442.64C185.3 448.501 175.533 451.627 165.755 452.793C155.201 453.968 145.028 452.402 136.032 448.891C116.873 441.079 103.183 423.504 100.448 403.197C99.2761 393.434 100.052 383.676 103.97 372.743C105.137 368.832 107.095 364.931 109.049 360.244C111.789 353.997 114.909 347.35 118.045 340.718L118.44 339.938C121.601 333.121 124.792 326.284 128.008 319.437C134.078 306.503 140.245 293.524 146.491 280.535V224.373H236.347C239.548 224.373 242.798 223.072 245.118 220.526C247.412 217.956 248.584 214.345 248.584 210.794V170.051H224.105V149.68H288.004V170.051H263.526V210.794C263.526 214.345 264.698 217.956 266.992 220.526C269.311 223.072 272.562 224.373 275.762 224.373H366.796V279.079C373.242 292.504 379.634 305.958 385.96 319.437C389.231 326.394 392.482 333.356 395.718 340.328V340.718C398.853 346.98 401.588 354.002 404.714 360.259C406.667 364.936 408.626 368.837 409.798 372.743C412.918 382.886 414.09 392.654 412.528 402.807Z" fill="white"/>
</svg>
