<svg width="3147" height="882" viewBox="0 0 3147 882" fill="none" xmlns="http://www.w3.org/2000/svg">
<g clip-path="url(#clip0_1_2)">
<path d="M1168.07 360.89V661.8H1088.38L1092.54 635.04H1090.16C1071.72 654.07 1044.96 667.75 1008.09 667.75C924.24 667.75 854.66 601.14 854.66 511.35C854.66 421.56 924.24 354.95 1008.09 354.95C1044.96 354.95 1071.72 368.63 1090.16 387.66H1092.54L1088.38 360.9H1168.07V360.89ZM1089.57 557.13V465.55C1075.3 439.98 1049.73 425.71 1017.02 425.71C966.47 425.71 933.17 461.39 933.17 511.35C933.17 561.31 966.47 596.99 1017.02 596.99C1049.73 596.99 1075.3 582.72 1089.57 557.15V557.13Z" fill="#7A64FF"/>
<path d="M1209.1 263.95C1209.1 235.4 1231.7 214.59 1259.65 214C1287.6 213.41 1311.39 234.81 1311.39 263.95C1311.39 293.09 1288.2 315.09 1259.65 315.09C1231.1 315.09 1209.1 293.68 1209.1 263.95ZM1222.18 360.89H1300.08V661.8H1222.18V360.89Z" fill="#7A64FF"/>
<path d="M1543.31 357.32V434.63C1534.98 429.87 1520.71 426.9 1508.82 426.9C1469.57 426.9 1445.78 445.93 1431.51 471.5L1430.92 661.8H1353.61V360.89H1432.7L1428.54 395.98H1429.13C1448.75 372.79 1479.08 354.95 1517.74 354.95C1526.07 354.95 1536.18 355.54 1543.31 357.33V357.32Z" fill="#7A64FF"/>
<path d="M1555.8 511.94C1555.8 422.74 1624.78 354.94 1718.15 354.94C1776.43 354.94 1807.35 372.19 1825.19 387.65L1792.48 451.88C1778.21 437.61 1755.61 425.71 1721.12 425.71C1672.36 425.71 1634.3 461.39 1634.3 511.94C1634.3 562.49 1669.98 596.98 1720.53 596.98C1755.62 596.98 1779.4 585.68 1793.68 571.41L1824.6 633.85C1807.35 648.72 1777.62 667.75 1718.15 667.75C1623 667.75 1555.8 599.96 1555.8 511.94Z" fill="#7A64FF"/>
<path d="M2142.16 360.89V661.8H2062.47L2066.63 635.04H2064.25C2045.81 654.07 2019.05 667.75 1982.18 667.75C1898.33 667.75 1828.75 601.14 1828.75 511.35C1828.75 421.56 1898.33 354.95 1982.18 354.95C2019.05 354.95 2045.81 368.63 2064.25 387.66H2066.63L2062.47 360.9H2142.16V360.89ZM2063.66 557.13V465.55C2049.39 439.98 2023.82 425.71 1991.11 425.71C1940.56 425.71 1907.26 461.39 1907.26 511.35C1907.26 561.31 1940.56 596.99 1991.11 596.99C2023.82 596.99 2049.39 582.72 2063.66 557.15V557.13Z" fill="#7A64FF"/>
<path d="M2176.06 630.28L2208.17 569.03C2228.98 589.25 2266.45 605.31 2294.99 605.31C2323.53 605.31 2337.81 594.61 2337.81 576.76C2337.81 558.91 2323.54 549.4 2285.48 539.89C2222.44 525.02 2189.14 492.91 2189.14 447.71C2189.14 391.21 2235.53 354.94 2306.89 354.94C2344.95 354.94 2378.25 365.64 2404.42 385.27L2374.09 445.33C2354.47 428.08 2330.08 417.97 2303.92 417.97C2277.76 417.97 2265.27 427.49 2265.27 443.54C2265.27 461.38 2278.95 469.71 2321.77 478.63C2381.24 491.12 2413.95 522.64 2413.95 572.59C2413.95 630.87 2366.97 667.74 2292.63 667.74C2248.62 667.74 2208.78 654.66 2176.07 630.27L2176.06 630.28Z" fill="#7A64FF"/>
<path d="M2488.87 552.97V427.49H2427.62V360.88H2493.04L2488.88 275.24H2568.57L2563.81 360.88H2670.85V427.49H2566.18V549.4C2566.18 585.08 2586.99 598.16 2611.97 598.16C2630.41 598.16 2642.89 592.21 2657.76 579.72L2689.28 638.59C2664.3 658.81 2638.73 667.73 2606.62 667.73C2534.66 667.73 2488.87 624.91 2488.87 552.95V552.97Z" fill="#7A64FF"/>
<path d="M2721.98 237.19H2799.88V661.8H2721.98V237.19Z" fill="#7A64FF"/>
<path d="M3145.39 532.75H2920C2930.7 574.38 2969.95 599.36 3013.37 599.36C3051.43 599.36 3078.19 585.09 3097.22 566.06L3129.93 626.72C3103.17 651.1 3061.54 667.75 3009.8 667.75C2912.87 667.75 2842.69 601.74 2842.69 511.35C2842.69 420.96 2910.48 354.95 2998.5 354.95C3086.52 354.95 3146.58 417.99 3146.58 507.79C3146.58 514.33 3145.99 525.04 3145.39 532.77V532.75ZM2921.2 476.26H3072.25C3066.9 439.98 3038.35 416.79 3001.48 416.79C2961.64 416.79 2931.9 438.2 2921.2 476.26Z" fill="#7A64FF"/>
<path d="M714.45 656.09C710.55 646.73 706.64 636.58 702.74 627.98C696.49 613.93 690.24 600.65 684.79 588.16L684.01 587.38C667.7 551.93 651.04 516.34 634.04 480.7V376.63C641.15 376.63 648.36 374.03 653.5 368.94C658.59 363.8 661.19 356.58 661.19 349.48V268.02H579.74V295.17H566.16V268.02H484.7V295.17H471.13V227.29C478.23 227.29 485.45 224.69 490.59 219.6C494 216.16 496.29 211.79 497.43 207.14C498 204.85 498.28 202.49 498.28 200.14V118.68H445.62L362.52 0L279.42 118.68H226.76V200.14C226.76 202.32 227 204.51 227.49 206.64C228.59 211.47 230.92 216.03 234.45 219.6C239.59 224.69 246.8 227.29 253.91 227.29V295.17H240.33V268.02H158.88V295.17H145.3V268.02H63.85V349.48C63.85 356.58 66.44 363.8 71.59 368.94C76.68 374.03 83.89 376.63 91 376.63V480.34C74.12 515.58 57.58 550.77 41.46 585.82L40.67 587.37C35.21 599.88 28.95 613.15 22.71 627.19C18.81 635.78 14.91 645.15 11.01 655.3C0.850037 684.18 -2.27996 711.51 1.64004 739.63C10.23 798.19 49.26 847.36 103.14 869.24C123.44 877.83 144.52 881.73 166.38 881.73C172.63 881.73 180.43 880.96 186.68 880.17C212.45 877.05 239 868.47 264.77 853.63C296.78 835.67 327.23 809.91 361.58 772.44C395.93 809.91 427.16 835.67 458.39 853.63C484.17 868.47 510.7 877.05 536.47 880.17C542.71 880.96 550.53 881.73 556.78 881.73C578.64 881.73 600.5 877.83 620.01 869.24C674.67 847.36 712.92 797.41 721.52 739.63C727.72 712.31 724.6 684.99 714.45 656.09ZM513.39 321.8V303.01H537.46V321.8H597.62V303.01H621.68V340.58H429.16V303.01H453.23V321.8H513.39ZM320.22 119.57L329.63 106.12L363.42 57.85L397.48 106.51L406.62 119.57V136.23H395.82V114.63H331.02V136.23H320.22V119.57ZM263.25 153.29H288.29V171.81H350.9V153.29H375.94V171.81H438.55V153.29H463.6V190.32H263.25V153.29ZM98.12 303.01H123.06V321.8H185.43V303.01H210.37V321.8H272.74V303.01H297.68V340.58H98.12V303.01ZM362.34 696.69C325.14 649.86 299.49 605.45 287.54 566.7C285.94 561.52 284.58 556.45 283.48 551.48C282.59 547.38 281.86 543.4 281.3 539.54C279.38 526.47 279.33 514.69 281.14 503.85C282.69 491.35 287.39 480.42 293.63 471.05C308.47 449.98 333.45 436.7 362.34 436.7C391.23 436.7 417 449.19 431.06 471.05C437.31 480.42 441.99 491.36 443.56 503.85C445.34 514.61 445.3 526.74 443.44 539.54C442.87 543.46 442.12 547.45 441.21 551.48C440.09 556.43 438.71 561.51 437.07 566.7C425.06 604.87 399.44 649.28 362.34 696.69ZM673.85 733.39C668.39 773.99 641.05 809.13 602.8 824.75C584.07 832.55 563.76 834.9 543.47 832.55C523.96 830.2 504.42 823.95 484.14 812.25C456.03 796.62 427.92 772.44 395.13 736.51C445.74 674.39 476.77 617.53 488.96 566.7C489.18 565.79 489.39 564.88 489.6 563.97C491.5 555.56 492.83 547.42 493.66 539.54C495.23 524.75 495.03 510.84 493.5 497.59C490.39 478.08 483.35 460.11 472.42 444.5C448.2 409.35 407.6 389.07 362.33 389.07C317.06 389.07 276.45 410.15 252.25 444.5C241.32 460.11 234.29 478.08 231.17 497.59C229.15 510.74 228.76 524.86 230.43 539.54C231.34 547.54 232.87 555.7 235.07 563.97C235.28 564.88 235.49 565.79 235.71 566.7C247.9 617.55 279.67 675.16 329.53 737.29C297.52 773.21 268.63 797.42 240.52 813.03C220.21 824.75 200.71 831 181.19 833.33C160.12 835.68 139.81 832.55 121.85 825.53C83.6 809.91 56.27 774.77 50.81 734.17C48.47 714.65 50.02 695.14 57.84 673.28C60.17 665.46 64.08 657.66 67.98 648.29C73.45 635.8 79.68 622.51 85.94 609.25L86.73 607.69C93.04 594.06 99.41 580.39 105.83 566.7C117.95 540.84 130.26 514.89 142.73 488.92V376.63H322.12C328.51 376.63 335 374.03 339.63 368.94C344.21 363.8 346.55 356.58 346.55 349.48V268.02H297.68V227.29H425.25V268.02H376.38V349.48C376.38 356.58 378.72 363.8 383.3 368.94C387.93 374.03 394.42 376.63 400.81 376.63H582.55V486.01C595.42 512.85 608.18 539.75 620.81 566.7C627.34 580.61 633.83 594.53 640.29 608.47V609.25C646.55 621.77 652.01 635.81 658.25 648.32C662.15 657.67 666.06 665.47 668.4 673.28C674.63 693.56 676.97 713.09 673.85 733.39Z" fill="#7A64FF"/>
</g>
<defs>
<clipPath id="clip0_1_2">
<rect width="3146.58" height="881.73" fill="white"/>
</clipPath>
</defs>
</svg>
